<svg id="Layer_1" data-name="Layer 1" xmlns="http://www.w3.org/2000/svg" viewBox="0 0 512 512"><title>calendar-glyph</title><path d="M490.67,21.33H384a21.33,21.33,0,0,0-42.67,0H170.67a21.33,21.33,0,0,0-42.67,0H21.33A21.33,21.33,0,0,0,0,42.67v448A21.33,21.33,0,0,0,21.33,512H490.67A21.33,21.33,0,0,0,512,490.67v-448A21.33,21.33,0,0,0,490.67,21.33Zm-277.33,320a21.33,21.33,0,0,1,0-42.67h21.33V284.33a7,7,0,0,0-7-7H192a21.33,21.33,0,0,1,0-42.67h35.67a49.72,49.72,0,0,1,49.67,49.67v71.33a49.72,49.72,0,0,1-49.67,49.67H192a21.33,21.33,0,0,1,0-42.67h35.67a7,7,0,0,0,7-7V341.33ZM298.67,384V256a21.33,21.33,0,0,1,42.67,0V384a21.33,21.33,0,0,1-42.67,0ZM42.67,64H128a21.33,21.33,0,0,0,42.67,0H341.33A21.33,21.33,0,0,0,384,64h85.33v64H42.67Z"/></svg>