<svg id="Capa_1" enable-background="new 0 0 512 512" height="512" viewBox="0 0 512 512" width="512" xmlns="http://www.w3.org/2000/svg"><g><path d="m497 215c-8.284 0-15 6.716-15 15v2.214 175.571 2.215c0 8.284 6.716 15 15 15s15-6.716 15-15v-180c0-8.285-6.716-15-15-15z"/><path d="m367 255c-35.841 0-65 29.159-65 65s29.159 65 65 65h40c15.336 0 30.591 2.7 45 7.802v-145.604c-14.409 5.101-29.664 7.802-45 7.802z"/><path d="m264.467 45.264c-29.272-29.2-68.127-45.264-109.457-45.264-.129 0-.264 0-.393 0-41.33.102-80.166 16.272-109.354 45.533s-45.263 68.137-45.263 109.467v242.345c0 30.7 11.976 59.542 33.722 81.213 21.65 21.576 50.374 33.443 80.914 33.442h.407l.355-.001c63.192-.219 114.602-51.807 114.602-114.999v-37.06c51.631-56.021 80-128.594 80-204.94 0-41.475-16.171-80.446-45.533-109.736zm-81.355 276.968-13.112 13.761v61.007c0 30.222-24.567 54.895-54.765 55h-.596c-14.59 0-28.308-5.683-38.628-16.001-10.325-10.323-16.011-24.05-16.011-38.654 0-8.284 6.716-15 15-15s15 6.716 15 15c0 6.589 2.565 12.783 7.222 17.439 4.654 4.653 10.84 7.216 17.417 7.216l.518-.001c13.687-.047 24.843-11.262 24.843-24.999v-67.01c0-3.853 1.482-7.558 4.141-10.348l17.252-18.105c5.714-5.998 15.209-6.228 21.207-.512 5.998 5.715 6.227 15.21.512 21.207zm51.888-152.232c-8.284 0-15-6.716-15-15 0-35.841-29.159-65-65-65s-65 29.159-65 65v49.096c23.057 6.547 40 27.777 40 52.904 0 30.327-24.673 55-55 55-8.284 0-15-6.716-15-15s6.716-15 15-15c13.785 0 25-11.215 25-25s-11.215-25-25-25c-8.284 0-15-6.716-15-15v-62c0-52.383 42.617-95 95-95s95 42.617 95 95c0 8.284-6.716 15-15 15z"/></g></svg>