<svg id="Layer_1" data-name="Layer 1" xmlns="http://www.w3.org/2000/svg" viewBox="0 0 512 512"><title>envelope-glyph</title><path d="M42.67,441.67A10.67,10.67,0,0,1,32,452.33H10.67a10.67,10.67,0,1,1,0-21.33H32A10.67,10.67,0,0,1,42.67,441.67Zm458.67,10.67a10.67,10.67,0,1,0,0-21.33H416.45L300.13,317.62l-37.32,30.93a10.66,10.66,0,0,1-13.61,0l-37.33-30.93L81.21,445a47.65,47.65,0,0,0,25.45,7.38Zm-285.39-159L144,233.68V127a5.34,5.34,0,0,1,5.33-5.33H362.67A5.34,5.34,0,0,1,368,127V233.67l-112,92.8-35.74-29.62a9.68,9.68,0,0,0-4.3-3.57ZM288,239a10.67,10.67,0,0,0-10.67-10.67h-48a10.67,10.67,0,0,0,0,21.33h48A10.67,10.67,0,0,0,288,239Zm-96-74.67A10.67,10.67,0,0,0,202.67,175H304a10.67,10.67,0,1,0,0-21.33H202.67A10.67,10.67,0,0,0,192,164.33Zm10.67,48H304A10.67,10.67,0,1,0,304,191H202.67a10.67,10.67,0,1,0,0,21.33ZM445.89,429.9a47.66,47.66,0,0,0,7.44-25.56V205.81a48,48,0,0,0-2-13.48L316.65,303.92ZM60.66,192.33a48,48,0,0,0-2,13.48V404.33a47.65,47.65,0,0,0,7.44,25.56l129.23-126Zm371-26.64-42.36-27.84V216l51.42-42.6A48.28,48.28,0,0,0,431.7,165.69Zm-309-27.83L80.3,165.69a48.26,48.26,0,0,0-9,7.7L122.67,216Zm159.69-70.3a48,48,0,0,0-52.72,0l-49.88,32.78H332.24Z"/></svg>