<svg height="512pt" viewBox="-6 0 512 512" width="512pt" xmlns="http://www.w3.org/2000/svg"><path d="m484.019531 0h-469.019531c-8.285156 0-15 6.714844-15 15v229.730469c0 80.863281 43.933594 155.453125 114.65625 194.660156l127.578125 70.726563c2.261719 1.253906 4.769531 1.882812 7.273437 1.882812 2.503907 0 5.011719-.628906 7.273438-1.882812l127.578125-70.726563c70.722656-39.207031 114.65625-113.796875 114.65625-194.660156v-229.730469c.003906-8.285156-6.714844-15-14.996094-15zm-78.515625 273.433594c-4.398437 0-8.675781-1.9375-11.582031-5.464844l-49.917969-60.605469v51.070313c0 8.285156-6.714844 15-15 15-8.28125 0-15-6.714844-15-15v-92.875c0-6.332032 3.976563-11.980469 9.9375-14.121094 5.957032-2.136719 12.617188-.300781 16.644532 4.585938l49.917968 60.605468v-51.070312c0-8.285156 6.714844-15 15-15 8.28125 0 15 6.714844 15 15v92.875c0 6.332031-3.976562 11.980468-9.9375 14.121094-1.65625.59375-3.371094.878906-5.0625.878906zm-140.964844-46.4375h-38.277343v31.4375c0 8.285156-6.714844 15-15 15-8.285157 0-15-6.714844-15-15v-92.875c0-8.285156 6.714843-15 15-15h53.277343c21.074219 0 38.21875 17.144531 38.21875 38.21875 0 21.074218-17.144531 38.21875-38.21875 38.21875zm-132.773437-7.953125 24.378906-59.195313c3.152344-7.660156 11.917969-11.316406 19.582031-8.160156 7.660157 3.15625 11.3125 11.921875 8.15625 19.582031l-38.246093 92.875c-2.316407 5.621094-7.792969 9.289063-13.871094 9.289063s-11.554687-3.667969-13.871094-9.289063l-38.246093-92.875c-3.15625-7.660156.496093-16.425781 8.15625-19.582031 7.660156-3.152344 16.425781.5 19.582031 8.160156zm0 0"/><path d="m264.539062 180.558594h-38.277343v16.4375h38.277343c4.53125 0 8.21875-3.6875 8.21875-8.21875s-3.6875-8.21875-8.21875-8.21875zm0 0"/></svg>